<svg width="1576" height="718" viewBox="0 0 1576 718" fill="none" xmlns="http://www.w3.org/2000/svg">
<g filter="url(#filter0_d_511_14)">
<path d="M6.48365 67.5123C7.18077 65.7382 8.17237 64.0944 9.41667 62.6504L7.38204 60.9064C5.94991 62.5817 4.80686 64.4838 3.99982 66.5347L6.48365 67.5123ZM13.7237 58.8982C15.3885 57.8358 17.1597 56.9502 19.0085 56.2559L18.0572 53.7721C16.0523 54.5361 14.1381 55.5197 12.3497 56.7051L13.7237 58.8982ZM66.0425 57.7356H67.0201V55.0932H65.9632C64.4042 55.0932 62.7924 55.0932 61.022 54.8818L60.8106 57.5242C62.6338 57.6563 64.3514 57.7356 66.0425 57.7356V57.7356ZM73.3618 57.0222C75.4439 56.5865 77.4857 55.9766 79.4656 55.1989L78.488 52.7151C76.6568 53.445 74.7645 54.0109 72.8333 54.4062L73.3618 57.0222ZM54.5746 56.7579L54.971 54.1156C53.0156 53.8249 51.0603 53.5078 49.1313 53.1643L48.7086 54.4591L48.4972 55.7538C50.6375 56.1238 52.5664 56.4673 54.5746 56.7579V56.7579ZM42.4726 54.7762L42.8426 52.1338C40.5173 51.7903 38.5355 51.5525 36.6859 51.4204L36.448 54.0627C38.2712 54.2213 40.1737 54.4591 42.4726 54.7233V54.7762ZM24.6102 54.5912C26.5432 54.196 28.5049 53.9574 30.4763 53.8777V51.2354C28.3633 51.3091 26.2599 51.5566 24.1875 51.9752L24.6102 54.5912ZM85.1467 52.2395C86.961 51.0592 88.6056 49.6368 90.0351 48.0117L88.0269 46.2413C86.7404 47.6814 85.2753 48.9512 83.667 50.0199L85.1467 52.2395ZM93.4966 42.4363C94.0134 41.1171 94.3769 39.7429 94.5799 38.3407C94.694 37.5618 94.7559 36.7761 94.7649 35.989H92.1226C92.1233 36.6703 92.0703 37.3506 91.964 38.0236C91.806 39.221 91.4952 40.3931 91.0392 41.5115L93.4966 42.4363ZM91.5677 30.0701L94.21 29.6209C94.025 28.4847 93.7872 27.322 93.5494 26.1858C93.3116 25.0496 93.1795 24.4418 93.021 23.5434L90.3786 24.0455C90.5371 24.9175 90.7221 25.8159 90.9071 26.6878C91.092 27.5598 91.3563 28.9603 91.5677 30.0701V30.0701ZM218.718 30.0701L219.722 27.6127L214.041 25.2874L213.037 27.7712C214.939 28.5111 216.816 29.2774 218.718 30.0701V30.0701ZM207.329 25.6573L208.281 23.015L202.52 20.8746L201.596 23.3849C203.524 24.0983 205.427 24.8118 207.329 25.6573ZM195.835 21.4824L196.707 18.84L190.894 16.8847L190.048 19.527C191.977 20.0555 193.906 20.6897 195.835 21.3767V21.4824ZM92.2018 17.7302C92.1646 16.0423 92.424 14.3609 92.9681 12.7626C92.9681 12.5776 92.9681 12.3927 93.1531 12.2341L90.6693 11.23L90.4315 11.8906C89.8059 13.7722 89.5109 15.748 89.5595 17.7302H92.2018ZM184.077 17.5188L184.896 14.8765L179.003 13.0797L178.237 15.7221L184.077 17.5188ZM172.371 14.0309L173.084 11.3886L167.139 9.77674L166.452 12.4191L172.371 14.0309ZM160.533 10.9129L161.194 8.27058L155.196 6.81729L154.588 9.45965L160.533 10.9129ZM148.616 8.11205L149.198 5.46969L143.173 4.20136L142.644 6.84372L148.616 8.11205ZM96.2711 7.68927C97.6762 6.42564 99.2959 5.42339 101.054 4.72983L100.023 2.27243C97.9781 3.09412 96.0915 4.26542 94.4479 5.73392L96.2711 7.68927ZM136.62 5.68107L137.122 3.03871L131.071 1.95534L130.595 4.5977L136.62 5.68107ZM124.571 3.62003L124.967 0.977671L123.144 0.713439C121.743 0.50205 120.29 0.317083 118.81 0.184964L118.573 2.82733C119.999 2.82733 121.4 3.11799 122.748 3.30295L124.571 3.62003ZM106.656 3.17084C108.613 2.85324 110.591 2.67662 112.574 2.64236V0C110.468 0.0419739 108.367 0.227366 106.286 0.554893L106.656 3.17084Z" fill="#BEC7E7"/>
<path d="M757.055 701.536L757.735 700.834L755.838 698.995L755.102 699.754C754.017 700.873 752.895 702.031 751.511 703.155L753.262 705.146C754.625 703.929 755.878 702.75 757.055 701.536ZM761.636 695.784C762.772 693.985 763.755 692.095 764.575 690.132L762.111 689.105C761.361 690.928 760.45 692.681 759.39 694.342L761.636 695.784ZM766.404 683.992C766.819 681.868 766.942 679.697 766.77 677.54L764.101 677.75C764.24 679.676 764.132 681.612 763.78 683.51L766.404 683.992ZM765.175 671.174C764.588 669.885 763.854 668.667 762.988 667.546C762.508 666.922 761.987 666.33 761.428 665.776L759.589 667.674C760.079 668.147 760.531 668.659 760.94 669.203C761.69 670.15 762.315 671.189 762.801 672.295L765.175 671.174ZM754.953 663.953L756.469 661.743C755.525 661.085 754.524 660.446 753.543 659.826C752.561 659.206 752.033 658.878 751.278 658.367L749.799 660.614C750.536 661.107 751.31 661.599 752.064 662.073C752.819 662.547 754.009 663.332 754.953 663.953ZM843.444 572.648L842.378 570.217L836.755 572.678L837.84 575.128C839.695 574.277 841.551 573.463 843.444 572.648ZM832.35 577.755L831.114 575.233L825.568 577.88L826.727 580.291C828.582 579.402 830.418 578.533 832.35 577.755ZM821.352 583.103L820.062 580.638L814.612 583.452L815.921 585.898C817.643 584.881 819.44 583.937 821.276 583.03L821.352 583.103ZM746.533 654.909C745.295 653.761 744.268 652.405 743.499 650.902C743.367 650.773 743.234 650.644 743.249 650.401L740.799 651.486L741.108 652.117C742.024 653.875 743.237 655.462 744.694 656.807L746.533 654.909ZM810.323 588.789L808.995 586.361L803.604 589.342L804.968 591.731L810.323 588.789ZM799.671 594.767L798.27 592.415L792.975 595.563L794.395 597.895L799.671 594.767ZM789.194 601.097L787.756 598.784L782.538 602.08L784.012 604.355L789.194 601.097ZM778.889 607.705L777.396 605.449L772.292 608.892L773.822 611.111L778.889 607.705ZM742.155 644.999C742.226 643.111 742.633 641.25 743.358 639.505L740.877 638.535C740.043 640.575 739.571 642.745 739.482 644.948L742.155 644.999ZM768.794 614.628L767.246 612.428L762.257 616.019L763.823 618.2L768.794 614.628ZM758.928 621.846L757.307 619.722L755.848 620.847C754.722 621.706 753.577 622.621 752.453 623.591L754.185 625.601C755.178 624.577 756.361 623.773 757.432 622.934L758.928 621.846ZM746.138 634.398C747.272 632.771 748.522 631.227 749.877 629.78L747.98 627.941C746.544 629.482 745.215 631.12 744.002 632.843L746.138 634.398Z" fill="#BEC7E7"/>
<path d="M224.845 29.2392L223.896 31.7185L229.628 33.916L230.576 31.4103C228.657 30.7132 226.765 29.9891 224.845 29.2392ZM236.329 33.3959L235.438 36.0589L241.244 38.0697L242.113 35.5394C240.168 34.8693 238.25 34.1987 236.329 33.3959ZM247.914 37.3125L247.102 39.9737L252.957 41.7984L253.743 39.1378C251.803 38.6527 249.86 38.0618 247.917 37.4182L247.914 37.3125ZM259.759 41.0118L258.999 43.6719L264.93 45.3363L265.637 42.6775L259.759 41.0118ZM271.539 44.2369L270.885 46.8945L276.865 48.3729L277.493 45.7158L271.539 44.2369ZM283.444 47.0891L282.843 49.7456L288.872 51.0642L289.42 48.4089L283.444 47.0891ZM295.421 49.6225L294.899 52.2772L300.95 53.4104L301.419 50.7568L295.421 49.6225ZM307.468 51.7843L307.026 54.4373L313.099 55.3849L313.516 52.7326L307.468 51.7843ZM319.561 53.5751L319.224 56.2257L321.052 56.4491C322.457 56.6291 323.914 56.7814 325.396 56.8804L325.575 54.2334C324.149 54.2653 322.742 54.0061 321.391 53.8513L319.561 53.5751Z" fill="#BEC7E7"/>
</g>
<path d="M1160.94 157.513L1160.99 154.871C1162.97 154.814 1164.96 154.615 1166.92 154.277L1167.35 156.927C1165.23 157.253 1163.09 157.449 1160.94 157.513ZM1154.63 157.281C1152.74 157.072 1150.86 156.724 1149.02 156.242L1148.39 156.073L1149.12 153.442L1149.7 153.61C1151.42 154.065 1153.19 154.384 1154.97 154.565L1154.63 157.281ZM1173.34 155.541L1172.65 152.888C1174.58 152.369 1176.49 151.746 1178.36 151.022L1179.3 153.521C1177.35 154.297 1175.36 154.972 1173.34 155.541ZM1142.45 153.76C1140.55 152.81 1138.74 151.694 1137.03 150.424L1138.63 148.282C1140.2 149.455 1141.87 150.489 1143.63 151.373L1142.45 153.76ZM1185.04 151.18L1183.92 148.758C1185.7 147.94 1187.51 147.017 1189.24 146.014L1190.53 148.36C1188.74 149.389 1186.88 150.337 1185.04 151.18ZM1132.26 146.2C1130.8 144.685 1129.45 143.055 1128.25 141.327L1130.41 139.802C1131.56 141.412 1132.82 142.934 1134.2 144.354L1132.26 146.2ZM1195.94 145.221L1194.55 142.953C1196.29 141.87 1197.99 140.787 1199.68 139.651L1201.15 141.867C1199.44 143.003 1197.7 144.139 1195.94 145.221ZM1206.25 138.407L1204.73 136.216L1209.78 132.727L1211.3 134.918L1206.25 138.407ZM1216.35 131.51L1214.88 129.293C1216.59 128.157 1218.32 127.022 1220.06 125.939L1221.47 128.208C1219.74 129.238 1218.06 130.347 1216.35 131.51ZM1226.7 125.119L1225.39 122.799C1227.31 121.746 1229.12 120.797 1230.91 119.926L1232.06 122.323C1230.41 123.116 1228.57 124.038 1226.7 125.066L1226.7 125.119ZM1237.59 119.926L1236.63 117.453C1238.54 116.69 1240.54 116.008 1242.53 115.405L1243.3 118.06C1241.37 118.479 1239.46 119.162 1237.59 119.873L1237.59 119.926ZM1291.04 117.332C1289.1 116.826 1287.12 116.346 1285.15 115.944L1285.66 113.31C1287.72 113.712 1289.74 114.193 1291.74 114.727L1291.04 117.332ZM1249.14 116.408L1248.55 113.756C1250.57 113.294 1252.61 112.904 1254.68 112.584L1255.08 115.233C1253.1 115.519 1251.08 115.91 1249.15 116.355L1249.14 116.408ZM1279.19 114.979C1277.21 114.736 1275.18 114.545 1273.17 114.435L1273.21 111.792C1275.3 111.825 1277.38 112.096 1279.41 112.366L1279.19 114.979ZM1261.09 114.693L1260.87 112.047C1262.91 111.868 1265.02 111.796 1267.08 111.749L1267.04 114.391C1265.11 114.255 1263.08 114.355 1261.09 114.535L1261.09 114.693Z" fill="#BEC7E7"/>
<path d="M1571.05 241.944L1568.41 241.991C1568.36 243.979 1568.16 245.96 1567.83 247.921L1570.48 248.35C1570.8 246.229 1570.99 244.089 1571.05 241.944ZM1570.81 235.632C1570.6 233.739 1570.25 231.864 1569.76 230.022L1569.59 229.39L1566.96 230.124L1567.13 230.702C1567.59 232.431 1567.91 234.192 1568.1 235.971L1570.81 235.632ZM1569.1 254.347L1566.45 253.653C1565.93 255.59 1565.31 257.498 1564.59 259.368L1567.09 260.302C1567.87 258.353 1568.54 256.365 1569.1 254.347ZM1567.27 223.459C1566.32 221.559 1565.2 219.748 1563.92 218.047L1561.78 219.643C1562.96 221.215 1564 222.886 1564.88 224.637L1567.27 223.459ZM1564.76 266.051L1562.34 264.931C1561.53 266.716 1560.61 268.529 1559.61 270.264L1561.95 271.544C1562.98 269.756 1563.92 267.889 1564.76 266.051ZM1559.69 213.285C1558.17 211.82 1556.54 210.479 1554.81 209.274L1553.29 211.441C1554.9 212.584 1556.43 213.847 1557.85 215.22L1559.69 213.285ZM1558.82 276.964L1556.55 275.577C1555.47 277.313 1554.39 279.024 1553.26 280.709L1555.48 282.176C1556.61 280.465 1557.75 278.727 1558.82 276.964ZM1552.03 287.284L1549.83 285.763L1546.36 290.819L1548.55 292.34L1552.03 287.284ZM1545.15 297.394L1542.93 295.927C1541.8 297.638 1540.66 299.376 1539.59 301.113L1541.86 302.526C1542.88 300.79 1543.99 299.106 1545.15 297.394ZM1538.78 307.76L1536.45 306.453C1535.4 308.374 1534.46 310.188 1533.59 311.974L1535.99 313.121C1536.78 311.469 1537.7 309.629 1538.72 307.761L1538.78 307.76Z" fill="#BEC7E7"/>
<path d="M1280.58 468.591L1280.18 465.921C1278.12 466.252 1276.09 466.612 1274.08 467.026L1274.61 469.703C1276.62 469.369 1278.6 469.006 1280.6 468.698L1280.58 468.591ZM1268.69 471.03L1268.05 468.346C1266.03 468.866 1264.05 469.386 1262.05 469.986L1262.8 472.544C1264.77 472.048 1266.72 471.631 1268.71 471.137L1268.69 471.03ZM1257 474.46L1256.14 471.923C1254.2 472.605 1252.25 473.287 1250.33 474.05L1251.3 476.54C1253.22 475.91 1255.11 475.224 1257.02 474.567L1257 474.46ZM1245.71 478.892L1244.64 476.448C1242.74 477.265 1240.86 478.137 1239.01 479.036L1240.19 481.433C1242.01 480.638 1243.84 479.764 1245.71 478.892ZM1234.82 484.247L1233.52 481.896C1231.72 482.878 1229.94 483.914 1228.05 484.97L1229.43 487.272C1231.26 486.292 1233.12 485.287 1234.79 484.325L1234.82 484.247ZM1224.4 490.529L1222.94 488.275C1221.22 489.411 1219.51 490.557 1217.82 491.712L1219.31 493.915C1220.96 492.846 1222.66 491.7 1224.37 490.607L1224.4 490.529ZM1214.26 497.41L1212.75 495.205L1212.39 495.45C1210.84 496.552 1209.27 497.626 1207.7 498.7L1209.22 500.905L1213.87 497.732L1214.26 497.41ZM1204.1 504.342L1202.64 502.114C1200.93 503.207 1199.23 504.3 1197.47 505.364L1198.88 507.641C1200.6 506.655 1202.34 505.511 1204.07 504.42L1204.1 504.342ZM1193.49 510.719L1192.08 508.441C1190.25 509.448 1188.43 510.348 1186.63 511.145L1187.74 513.564C1189.69 512.724 1191.57 511.826 1193.46 510.797L1193.49 510.719ZM1182.15 515.863L1181.24 513.349C1179.36 514.047 1177.44 514.643 1175.5 515.137L1176.17 517.822C1178.1 517.35 1180.12 516.673 1182.12 515.941L1182.15 515.863ZM1170.01 518.976L1169.64 516.308C1167.65 516.592 1165.65 516.769 1163.65 516.837L1163.76 519.49C1165.84 519.451 1167.92 519.306 1169.98 519.054L1170.01 518.976ZM1157.67 516.784C1155.67 516.669 1153.66 516.554 1151.7 516.097L1151.26 518.718C1153.33 519.066 1155.41 519.31 1157.49 519.447L1157.67 516.784ZM1145.82 514.806C1143.92 514.273 1142 513.659 1140.13 512.943L1139.16 515.534C1141.11 516.281 1143.11 516.926 1145.14 517.492L1145.82 514.806Z" fill="#BEC7E7"/>
<path d="M673.787 130.103L674.691 130.397L675.509 127.884L674.654 127.606C673.046 127.083 671.413 126.552 669.829 125.87L668.86 128.333C670.461 128.965 672.128 129.563 673.787 130.103ZM680.653 132.142C682.662 132.629 684.704 133.016 686.762 133.352L687.202 130.716C685.195 130.397 683.211 130.002 681.278 129.539L680.653 132.142ZM663.069 125.893L664.238 123.495C662.435 122.631 660.64 121.658 658.92 120.625L657.549 122.958C659.386 123.889 661.231 124.879 663.101 125.793L663.069 125.893ZM692.951 134.143C695 134.337 697.098 134.464 699.162 134.524L699.251 131.774C697.245 131.705 695.222 131.603 693.224 131.425L692.951 134.143ZM705.379 134.463C707.434 134.381 709.539 134.232 711.584 134.009L711.306 131.362C709.319 131.577 707.273 131.717 705.276 131.79L705.379 134.463ZM717.77 133.103C719.798 132.763 721.85 132.347 723.743 131.824L723.115 129.229C721.162 129.678 719.16 130.11 717.165 130.434L717.77 133.103ZM729.84 130.167C731.816 129.56 733.791 128.868 735.707 128.103L734.737 125.619C732.862 126.343 730.904 127.151 729.027 127.624L729.84 130.167ZM741.438 125.605C743.337 124.722 745.185 123.739 746.983 122.74L745.688 120.402C743.948 121.392 742.142 122.332 740.31 123.181L741.438 125.605ZM752.316 119.502C754.054 118.344 755.859 117.153 757.387 115.872L755.742 113.753C754.18 114.967 752.517 116.149 750.846 117.273L752.316 119.502ZM762.163 111.868C763.707 110.453 765.209 108.997 766.61 107.508L764.692 105.633L764.602 105.91C763.399 107.13 761.964 108.552 760.519 109.916L762.163 111.868ZM770.663 102.824C771.641 101.698 772.593 100.563 773.521 99.4195L774.615 98.108L772.58 96.4181L771.487 97.7295L768.637 101.109L770.663 102.824ZM778.592 93.4835C780.084 91.8016 781.436 90.3797 782.789 89.1249L780.912 87.2081C779.568 88.5214 778.166 90.0105 776.658 91.7427L778.592 93.4835ZM787.265 85.1903L788.445 84.2961C789.648 83.441 790.91 82.6724 792.222 81.996L790.993 79.6234C789.56 80.3654 788.181 81.2074 786.867 82.1432L785.837 83.003L787.265 85.1903ZM797.671 79.7675C799.533 79.2057 801.449 78.8417 803.387 78.6818L803.2 76.0092C801.063 76.2007 798.95 76.6021 796.892 77.2078L797.671 79.7675Z" fill="#BEC7E7"/>
<defs>
<filter id="filter0_d_511_14" x="0" y="0" width="847.444" height="717.09" filterUnits="userSpaceOnUse" color-interpolation-filters="sRGB">
<feFlood flood-opacity="0" result="BackgroundImageFix"/>
<feColorMatrix in="SourceAlpha" type="matrix" values="0 0 0 0 0 0 0 0 0 0 0 0 0 0 0 0 0 0 127 0" result="hardAlpha"/>
<feOffset dy="4"/>
<feGaussianBlur stdDeviation="2"/>
<feComposite in2="hardAlpha" operator="out"/>
<feColorMatrix type="matrix" values="0 0 0 0 0 0 0 0 0 0 0 0 0 0 0 0 0 0 0.25 0"/>
<feBlend mode="normal" in2="BackgroundImageFix" result="effect1_dropShadow_511_14"/>
<feBlend mode="normal" in="SourceGraphic" in2="effect1_dropShadow_511_14" result="shape"/>
</filter>
</defs>
</svg>
